<?xml version="1.0" encoding="UTF-8" standalone="no"?><svg xmlns="http://www.w3.org/2000/svg" xmlns:xlink="http://www.w3.org/1999/xlink" contentScriptType="application/ecmascript" contentStyleType="text/css" height="419px" preserveAspectRatio="none" style="width:350px;height:419px;" version="1.1" viewBox="0 0 350 419" width="350px" zoomAndPan="magnify"><defs><filter height="300%" id="f1fzw2637c2xsk" width="300%" x="-1" y="-1"><feGaussianBlur result="blurOut" stdDeviation="2.0"/><feColorMatrix in="blurOut" result="blurOut2" type="matrix" values="0 0 0 0 0 0 0 0 0 0 0 0 0 0 0 0 0 0 .4 0"/><feOffset dx="4.0" dy="4.0" in="blurOut2" result="blurOut3"/><feBlend in="SourceGraphic" in2="blurOut3" mode="normal"/></filter></defs><g><!--MD5=[3fd616f346a44cd59a91eb10b19e157c]
class User--><rect codeLine="2" fill="#FEFECE" filter="url(#f1fzw2637c2xsk)" height="85.0688" id="User" style="stroke:#A80036;stroke-width:1.5;" width="85" x="92" y="7"/><ellipse cx="118.7" cy="23" fill="#ADD1B2" rx="11" ry="11" style="stroke:#A80036;stroke-width:1.0;"/><path d="M115.2313,17.2813 L115.2313,16.875 L122.7469,16.875 L123.4656,19.1406 L122.2938,19.5938 Q121.6063,18.2656 121.0125,17.7734 Q120.4188,17.2813 119.6844,17.2813 L117.825,17.2813 Q117.825,17.2813 117.9578,17.4141 Q118.0906,17.5469 118.0906,17.8125 L118.0906,21.9219 L119.1531,21.9219 Q119.8094,21.9219 120.1141,21.5938 Q120.4188,21.2656 120.4188,20.5938 L120.4188,20.2031 L121.8094,20.2031 L121.8094,24.1094 L120.4188,24.1094 L120.4188,23.8438 Q120.4188,23.125 120.1141,22.7266 Q119.8094,22.3281 119.1531,22.3281 L118.2313,22.3281 L118.2313,27.2969 Q118.2313,27.5625 118.3953,27.6953 Q118.5594,27.8281 118.5594,27.8281 L119.5438,27.8281 Q120.5438,27.8281 121.2391,27.2656 Q121.9344,26.7031 122.45,25.1875 L123.6688,25.6406 L122.9344,28.2344 L115.1688,28.2344 L115.1688,27.8281 L115.5594,27.8281 Q115.9031,27.8281 116.0359,27.6953 Q116.1688,27.5625 116.1688,27.2969 L116.1688,17.8125 Q116.1688,17.5469 116.0359,17.4141 Q115.9031,17.2813 115.5594,17.2813 L115.2313,17.2813 Z " fill="#000000"/><text fill="#000000" font-family="sans-serif" font-size="12" lengthAdjust="spacing" textLength="27" x="135.3" y="28.5576">User</text><line style="stroke:#A80036;stroke-width:1.5;" x1="93" x2="176" y1="39" y2="39"/><text fill="#000000" font-family="sans-serif" font-size="11" lengthAdjust="spacing" textLength="31" x="98" y="55.606">UserId</text><text fill="#000000" font-family="sans-serif" font-size="11" lengthAdjust="spacing" textLength="50" x="98" y="70.6289">UserName</text><text fill="#000000" font-family="sans-serif" font-size="11" lengthAdjust="spacing" textLength="73" x="98" y="85.6519">UserPassword</text><!--MD5=[fc9123f50df7760bd51419ff29409869]
class FriendRelationship--><rect codeLine="7" fill="#FEFECE" filter="url(#f1fzw2637c2xsk)" height="70.0459" id="FriendRelationship" style="stroke:#A80036;stroke-width:1.5;" width="137" x="7" y="186"/><ellipse cx="22" cy="202" fill="#ADD1B2" rx="11" ry="11" style="stroke:#A80036;stroke-width:1.0;"/><path d="M18.5313,196.2813 L18.5313,195.875 L26.0469,195.875 L26.7656,198.1406 L25.5938,198.5938 Q24.9063,197.2656 24.3125,196.7734 Q23.7188,196.2813 22.9844,196.2813 L21.125,196.2813 Q21.125,196.2813 21.2578,196.4141 Q21.3906,196.5469 21.3906,196.8125 L21.3906,200.9219 L22.4531,200.9219 Q23.1094,200.9219 23.4141,200.5938 Q23.7188,200.2656 23.7188,199.5938 L23.7188,199.2031 L25.1094,199.2031 L25.1094,203.1094 L23.7188,203.1094 L23.7188,202.8438 Q23.7188,202.125 23.4141,201.7266 Q23.1094,201.3281 22.4531,201.3281 L21.5313,201.3281 L21.5313,206.2969 Q21.5313,206.5625 21.6953,206.6953 Q21.8594,206.8281 21.8594,206.8281 L22.8438,206.8281 Q23.8438,206.8281 24.5391,206.2656 Q25.2344,205.7031 25.75,204.1875 L26.9688,204.6406 L26.2344,207.2344 L18.4688,207.2344 L18.4688,206.8281 L18.8594,206.8281 Q19.2031,206.8281 19.3359,206.6953 Q19.4688,206.5625 19.4688,206.2969 L19.4688,196.8125 Q19.4688,196.5469 19.3359,196.4141 Q19.2031,196.2813 18.8594,196.2813 L18.5313,196.2813 Z " fill="#000000"/><text fill="#000000" font-family="sans-serif" font-size="12" lengthAdjust="spacing" textLength="105" x="36" y="207.5576">FriendRelationship</text><line style="stroke:#A80036;stroke-width:1.5;" x1="8" x2="143" y1="218" y2="218"/><text fill="#000000" font-family="sans-serif" font-size="11" lengthAdjust="spacing" textLength="37" x="13" y="234.606">UserId1</text><text fill="#000000" font-family="sans-serif" font-size="11" lengthAdjust="spacing" textLength="37" x="13" y="249.6289">UserId2</text><!--MD5=[bea5b0d46523efab5ea1c1d339f396f0]
class Message--><rect codeLine="11" fill="#FEFECE" filter="url(#f1fzw2637c2xsk)" height="100.0918" id="Message" style="stroke:#A80036;stroke-width:1.5;" width="113" x="179" y="171"/><ellipse cx="207.5" cy="187" fill="#ADD1B2" rx="11" ry="11" style="stroke:#A80036;stroke-width:1.0;"/><path d="M204.0313,181.2813 L204.0313,180.875 L211.5469,180.875 L212.2656,183.1406 L211.0938,183.5938 Q210.4063,182.2656 209.8125,181.7734 Q209.2188,181.2813 208.4844,181.2813 L206.625,181.2813 Q206.625,181.2813 206.7578,181.4141 Q206.8906,181.5469 206.8906,181.8125 L206.8906,185.9219 L207.9531,185.9219 Q208.6094,185.9219 208.9141,185.5938 Q209.2188,185.2656 209.2188,184.5938 L209.2188,184.2031 L210.6094,184.2031 L210.6094,188.1094 L209.2188,188.1094 L209.2188,187.8438 Q209.2188,187.125 208.9141,186.7266 Q208.6094,186.3281 207.9531,186.3281 L207.0313,186.3281 L207.0313,191.2969 Q207.0313,191.5625 207.1953,191.6953 Q207.3594,191.8281 207.3594,191.8281 L208.3438,191.8281 Q209.3438,191.8281 210.0391,191.2656 Q210.7344,190.7031 211.25,189.1875 L212.4688,189.6406 L211.7344,192.2344 L203.9688,192.2344 L203.9688,191.8281 L204.3594,191.8281 Q204.7031,191.8281 204.8359,191.6953 Q204.9688,191.5625 204.9688,191.2969 L204.9688,181.8125 Q204.9688,181.5469 204.8359,181.4141 Q204.7031,181.2813 204.3594,181.2813 L204.0313,181.2813 Z " fill="#000000"/><text fill="#000000" font-family="sans-serif" font-size="12" lengthAdjust="spacing" textLength="51" x="224.5" y="192.5576">Message</text><line style="stroke:#A80036;stroke-width:1.5;" x1="180" x2="291" y1="203" y2="203"/><text fill="#000000" font-family="sans-serif" font-size="11" lengthAdjust="spacing" textLength="87" x="185" y="219.606">MessageRecordId</text><text fill="#000000" font-family="sans-serif" font-size="11" lengthAdjust="spacing" textLength="87" x="185" y="234.6289">MessageSenderId</text><text fill="#000000" font-family="sans-serif" font-size="11" lengthAdjust="spacing" textLength="101" x="185" y="249.6519">MessageChatRoomId</text><text fill="#000000" font-family="sans-serif" font-size="11" lengthAdjust="spacing" textLength="66" x="185" y="264.6748">MessageTime</text><!--MD5=[8d82b504b58c2fac8ac5760159ea733e]
class Chatroom--><rect codeLine="17" fill="#FEFECE" filter="url(#f1fzw2637c2xsk)" height="55.0229" id="Chatroom" style="stroke:#A80036;stroke-width:1.5;" width="92" x="244.5" y="350"/><ellipse cx="259.5" cy="366" fill="#ADD1B2" rx="11" ry="11" style="stroke:#A80036;stroke-width:1.0;"/><path d="M256.0313,360.2813 L256.0313,359.875 L263.5469,359.875 L264.2656,362.1406 L263.0938,362.5938 Q262.4063,361.2656 261.8125,360.7734 Q261.2188,360.2813 260.4844,360.2813 L258.625,360.2813 Q258.625,360.2813 258.7578,360.4141 Q258.8906,360.5469 258.8906,360.8125 L258.8906,364.9219 L259.9531,364.9219 Q260.6094,364.9219 260.9141,364.5938 Q261.2188,364.2656 261.2188,363.5938 L261.2188,363.2031 L262.6094,363.2031 L262.6094,367.1094 L261.2188,367.1094 L261.2188,366.8438 Q261.2188,366.125 260.9141,365.7266 Q260.6094,365.3281 259.9531,365.3281 L259.0313,365.3281 L259.0313,370.2969 Q259.0313,370.5625 259.1953,370.6953 Q259.3594,370.8281 259.3594,370.8281 L260.3438,370.8281 Q261.3438,370.8281 262.0391,370.2656 Q262.7344,369.7031 263.25,368.1875 L264.4688,368.6406 L263.7344,371.2344 L255.9688,371.2344 L255.9688,370.8281 L256.3594,370.8281 Q256.7031,370.8281 256.8359,370.6953 Q256.9688,370.5625 256.9688,370.2969 L256.9688,360.8125 Q256.9688,360.5469 256.8359,360.4141 Q256.7031,360.2813 256.3594,360.2813 L256.0313,360.2813 Z " fill="#000000"/><text fill="#000000" font-family="sans-serif" font-size="12" lengthAdjust="spacing" textLength="60" x="273.5" y="371.5576">Chatroom</text><line style="stroke:#A80036;stroke-width:1.5;" x1="245.5" x2="335.5" y1="382" y2="382"/><text fill="#000000" font-family="sans-serif" font-size="11" lengthAdjust="spacing" textLength="58" x="250.5" y="398.606">ChatRoomID</text><!--MD5=[2c47f1a15cb467fb3dfccfaff54dfc03]
reverse link User to FriendRelationship--><path codeLine="21" d="M105.55,100.02 C94.22,127.64 82.91,161.33 76.89,185.98 " fill="none" id="User-backto-FriendRelationship" style="stroke:#A80036;stroke-width:1.0;stroke-dasharray:7.0,7.0;"/><line style="stroke:#A80036;stroke-width:1.0;" x1="105.6387" x2="103.2092" y1="99.7744" y2="90.0741"/><line style="stroke:#A80036;stroke-width:1.0;" x1="105.6387" x2="114.2708" y1="99.7744" y2="94.7259"/><line style="stroke:#A80036;stroke-width:1.0;" x1="105.6387" x2="108.74" y1="99.7744" y2="92.4"/><line style="stroke:#A80036;stroke-width:1.0;" x1="101.1762" x2="108.5506" y1="100.0674" y2="103.1687"/><!--MD5=[e235c9cb2b6421625b3da5b4ac25d620]
link FriendRelationship to User--><path codeLine="22" d="M98.41,185.98 C109.65,161.44 121.77,127.92 129.57,100.37 " fill="none" id="FriendRelationship-to-User" style="stroke:#A80036;stroke-width:1.0;stroke-dasharray:7.0,7.0;"/><line style="stroke:#A80036;stroke-width:1.0;" x1="129.6487" x2="125.9607" y1="100.1191" y2="90.824"/><line style="stroke:#A80036;stroke-width:1.0;" x1="129.6487" x2="137.5393" y1="100.1191" y2="93.976"/><line style="stroke:#A80036;stroke-width:1.0;" x1="129.6487" x2="131.75" y1="100.1191" y2="92.4"/><ellipse cx="128.0727" cy="105.9084" fill="none" rx="4" ry="4" style="stroke:#A80036;stroke-width:1.0;"/><!--MD5=[e8a44440e7d883fedaa906df2c0e3d75]
link User to Message--><path codeLine="23" d="M163.71,99.51 C175.69,119.62 189.63,143.02 202.02,163.82 " fill="none" id="User-Message" style="stroke:#A80036;stroke-width:1.0;stroke-dasharray:7.0,7.0;"/><line style="stroke:#A80036;stroke-width:1.0;" x1="202.0714" x2="211.3172" y1="163.8837" y2="167.6935"/><line style="stroke:#A80036;stroke-width:1.0;" x1="202.0714" x2="201.0028" y1="163.8837" y2="173.8265"/><line style="stroke:#A80036;stroke-width:1.0;" x1="202.0714" x2="206.16" y1="163.8837" y2="170.76"/><ellipse cx="199.0049" cy="158.7265" fill="none" rx="4" ry="4" style="stroke:#A80036;stroke-width:1.0;"/><line style="stroke:#A80036;stroke-width:1.0;" x1="158.0762" x2="164.9524" y1="97.8824" y2="93.7938"/><line style="stroke:#A80036;stroke-width:1.0;" x1="159.6094" x2="166.4857" y1="100.4611" y2="96.3724"/><line style="stroke:#A80036;stroke-width:1.0;" x1="163.5586" x2="159.47" y1="99.2763" y2="92.4"/><text fill="#000000" font-family="sans-serif" font-size="13" lengthAdjust="spacing" textLength="30" x="189.5" y="137.8979">Send</text><!--MD5=[5d405927540481f30b791c70fd6905d4]
link Message to Chatroom--><path codeLine="24" d="M255.47,278.1 C263.21,299.83 271.81,323.99 278.55,342.92 " fill="none" id="Message-Chatroom" style="stroke:#A80036;stroke-width:1.0;stroke-dasharray:7.0,7.0;"/><line style="stroke:#A80036;stroke-width:1.0;" x1="283.3581" x2="275.826" y1="344.536" y2="347.2319"/><line style="stroke:#A80036;stroke-width:1.0;" x1="282.3472" x2="274.8151" y1="341.7115" y2="344.4074"/><line style="stroke:#A80036;stroke-width:1.0;" x1="278.2441" x2="280.94" y1="342.1179" y2="349.65"/><line style="stroke:#A80036;stroke-width:1.0;" x1="250.6284" x2="258.1623" y1="276.4223" y2="273.7316"/><line style="stroke:#A80036;stroke-width:1.0;" x1="251.6374" x2="259.1713" y1="279.2475" y2="276.5568"/><line style="stroke:#A80036;stroke-width:1.0;" x1="255.7407" x2="253.05" y1="278.8439" y2="271.31"/><text fill="#000000" font-family="sans-serif" font-size="13" lengthAdjust="spacing" textLength="45" x="271.5" y="316.8979">Send to</text><!--MD5=[d8887f7d701c8c10435aaeca7abfef41]
link Chatroom to User--><path codeLine="25" d="M313.95,342.9 C317.89,335.65 321.39,327.81 323.5,320 C340.88,255.8 343.56,228.13 309.5,171 C281.05,123.27 225.5,89.99 184.58,70.68 " fill="none" id="Chatroom-User" style="stroke:#A80036;stroke-width:1.0;stroke-dasharray:7.0,7.0;"/><line style="stroke:#A80036;stroke-width:1.0;" x1="184.3807" x2="174.6009" y1="70.5988" y2="72.6856"/><line style="stroke:#A80036;stroke-width:1.0;" x1="184.3807" x2="179.6391" y1="70.5988" y2="61.7944"/><line style="stroke:#A80036;stroke-width:1.0;" x1="184.3807" x2="177.12" y1="70.5988" y2="67.24"/><line style="stroke:#A80036;stroke-width:1.0;" x1="184.5165" x2="187.8753" y1="75.0689" y2="67.8081"/><line style="stroke:#A80036;stroke-width:1.0;" x1="313.8898" x2="315.0862" y1="343.0017" y2="352.9299"/><line style="stroke:#A80036;stroke-width:1.0;" x1="313.8898" x2="304.6938" y1="343.0017" y2="346.9301"/><line style="stroke:#A80036;stroke-width:1.0;" x1="313.8898" x2="309.89" y1="343.0017" y2="349.93"/><ellipse cx="316.8897" cy="337.8055" fill="none" rx="4" ry="4" style="stroke:#A80036;stroke-width:1.0;"/><!--MD5=[3ed67cc0a82c1a64dda4530f15273be5]
@startUML Database_ER
hide empty members
entity User{
    UserId
    UserName
    UserPassword
}
entity FriendRelationship{
    UserId1
    UserId2
}
entity Message{
    MessageRecordId
    MessageSenderId
    MessageChatRoomId
    MessageTime
}
entity Chatroom{
    ChatRoomID
}

User }|.. FriendRelationship
FriendRelationship ..o{ User
User ||..o{ Message : Send
Message ||..|| Chatroom : Send to
Chatroom }o..|{ User
@endUML

PlantUML version 1.2021.00(Sun Jan 10 18:25:05 CST 2021)
(GPL source distribution)
Java Runtime: Java(TM) SE Runtime Environment
JVM: Java HotSpot(TM) 64-Bit Server VM
Default Encoding: GBK
Language: zh
Country: CN
--></g></svg>