<?xml version="1.0" encoding="UTF-8" standalone="no"?><svg xmlns="http://www.w3.org/2000/svg" xmlns:xlink="http://www.w3.org/1999/xlink" contentScriptType="application/ecmascript" contentStyleType="text/css" height="266px" preserveAspectRatio="none" style="width:292px;height:266px;" version="1.1" viewBox="0 0 292 266" width="292px" zoomAndPan="magnify"><defs><filter height="300%" id="fcs7cc78mlxjv" width="300%" x="-1" y="-1"><feGaussianBlur result="blurOut" stdDeviation="2.0"/><feColorMatrix in="blurOut" result="blurOut2" type="matrix" values="0 0 0 0 0 0 0 0 0 0 0 0 0 0 0 0 0 0 .4 0"/><feOffset dx="4.0" dy="4.0" in="blurOut2" result="blurOut3"/><feBlend in="SourceGraphic" in2="blurOut3" mode="normal"/></filter></defs><g><!--MD5=[3fd616f346a44cd59a91eb10b19e157c]
class User--><rect codeLine="2" fill="#FEFECE" filter="url(#fcs7cc78mlxjv)" height="85.0688" id="User" style="stroke:#A80036;stroke-width:1.5;" width="85" x="21" y="7"/><ellipse cx="47.7" cy="23" fill="#ADD1B2" rx="11" ry="11" style="stroke:#A80036;stroke-width:1.0;"/><path d="M44.2313,17.2813 L44.2313,16.875 L51.7469,16.875 L52.4656,19.1406 L51.2938,19.5938 Q50.6063,18.2656 50.0125,17.7734 Q49.4188,17.2813 48.6844,17.2813 L46.825,17.2813 Q46.825,17.2813 46.9578,17.4141 Q47.0906,17.5469 47.0906,17.8125 L47.0906,21.9219 L48.1531,21.9219 Q48.8094,21.9219 49.1141,21.5938 Q49.4188,21.2656 49.4188,20.5938 L49.4188,20.2031 L50.8094,20.2031 L50.8094,24.1094 L49.4188,24.1094 L49.4188,23.8438 Q49.4188,23.125 49.1141,22.7266 Q48.8094,22.3281 48.1531,22.3281 L47.2313,22.3281 L47.2313,27.2969 Q47.2313,27.5625 47.3953,27.6953 Q47.5594,27.8281 47.5594,27.8281 L48.5438,27.8281 Q49.5438,27.8281 50.2391,27.2656 Q50.9344,26.7031 51.45,25.1875 L52.6688,25.6406 L51.9344,28.2344 L44.1688,28.2344 L44.1688,27.8281 L44.5594,27.8281 Q44.9031,27.8281 45.0359,27.6953 Q45.1688,27.5625 45.1688,27.2969 L45.1688,17.8125 Q45.1688,17.5469 45.0359,17.4141 Q44.9031,17.2813 44.5594,17.2813 L44.2313,17.2813 Z " fill="#000000"/><text fill="#000000" font-family="sans-serif" font-size="12" lengthAdjust="spacing" textLength="27" x="64.3" y="28.5576">User</text><line style="stroke:#A80036;stroke-width:1.5;" x1="22" x2="105" y1="39" y2="39"/><text fill="#000000" font-family="sans-serif" font-size="11" lengthAdjust="spacing" textLength="31" x="27" y="55.606">UserId</text><text fill="#000000" font-family="sans-serif" font-size="11" lengthAdjust="spacing" textLength="50" x="27" y="70.6289">UserName</text><text fill="#000000" font-family="sans-serif" font-size="11" lengthAdjust="spacing" textLength="73" x="27" y="85.6519">UserPassword</text><!--MD5=[fc9123f50df7760bd51419ff29409869]
class FriendRelationship--><rect codeLine="7" fill="#FEFECE" filter="url(#fcs7cc78mlxjv)" height="70.0459" id="FriendRelationship" style="stroke:#A80036;stroke-width:1.5;" width="137" x="141" y="14.5"/><ellipse cx="156" cy="30.5" fill="#ADD1B2" rx="11" ry="11" style="stroke:#A80036;stroke-width:1.0;"/><path d="M152.5313,24.7813 L152.5313,24.375 L160.0469,24.375 L160.7656,26.6406 L159.5938,27.0938 Q158.9063,25.7656 158.3125,25.2734 Q157.7188,24.7813 156.9844,24.7813 L155.125,24.7813 Q155.125,24.7813 155.2578,24.9141 Q155.3906,25.0469 155.3906,25.3125 L155.3906,29.4219 L156.4531,29.4219 Q157.1094,29.4219 157.4141,29.0938 Q157.7188,28.7656 157.7188,28.0938 L157.7188,27.7031 L159.1094,27.7031 L159.1094,31.6094 L157.7188,31.6094 L157.7188,31.3438 Q157.7188,30.625 157.4141,30.2266 Q157.1094,29.8281 156.4531,29.8281 L155.5313,29.8281 L155.5313,34.7969 Q155.5313,35.0625 155.6953,35.1953 Q155.8594,35.3281 155.8594,35.3281 L156.8438,35.3281 Q157.8438,35.3281 158.5391,34.7656 Q159.2344,34.2031 159.75,32.6875 L160.9688,33.1406 L160.2344,35.7344 L152.4688,35.7344 L152.4688,35.3281 L152.8594,35.3281 Q153.2031,35.3281 153.3359,35.1953 Q153.4688,35.0625 153.4688,34.7969 L153.4688,25.3125 Q153.4688,25.0469 153.3359,24.9141 Q153.2031,24.7813 152.8594,24.7813 L152.5313,24.7813 Z " fill="#000000"/><text fill="#000000" font-family="sans-serif" font-size="12" lengthAdjust="spacing" textLength="105" x="170" y="36.0576">FriendRelationship</text><line style="stroke:#A80036;stroke-width:1.5;" x1="142" x2="277" y1="46.5" y2="46.5"/><text fill="#000000" font-family="sans-serif" font-size="11" lengthAdjust="spacing" textLength="37" x="147" y="63.106">UserId1</text><text fill="#000000" font-family="sans-serif" font-size="11" lengthAdjust="spacing" textLength="37" x="147" y="78.1289">UserId2</text><!--MD5=[bea5b0d46523efab5ea1c1d339f396f0]
class Message--><rect codeLine="11" fill="#FEFECE" filter="url(#fcs7cc78mlxjv)" height="100.0918" id="Message" style="stroke:#A80036;stroke-width:1.5;" width="113" x="7" y="152"/><ellipse cx="35.5" cy="168" fill="#ADD1B2" rx="11" ry="11" style="stroke:#A80036;stroke-width:1.0;"/><path d="M32.0313,162.2813 L32.0313,161.875 L39.5469,161.875 L40.2656,164.1406 L39.0938,164.5938 Q38.4063,163.2656 37.8125,162.7734 Q37.2188,162.2813 36.4844,162.2813 L34.625,162.2813 Q34.625,162.2813 34.7578,162.4141 Q34.8906,162.5469 34.8906,162.8125 L34.8906,166.9219 L35.9531,166.9219 Q36.6094,166.9219 36.9141,166.5938 Q37.2188,166.2656 37.2188,165.5938 L37.2188,165.2031 L38.6094,165.2031 L38.6094,169.1094 L37.2188,169.1094 L37.2188,168.8438 Q37.2188,168.125 36.9141,167.7266 Q36.6094,167.3281 35.9531,167.3281 L35.0313,167.3281 L35.0313,172.2969 Q35.0313,172.5625 35.1953,172.6953 Q35.3594,172.8281 35.3594,172.8281 L36.3438,172.8281 Q37.3438,172.8281 38.0391,172.2656 Q38.7344,171.7031 39.25,170.1875 L40.4688,170.6406 L39.7344,173.2344 L31.9688,173.2344 L31.9688,172.8281 L32.3594,172.8281 Q32.7031,172.8281 32.8359,172.6953 Q32.9688,172.5625 32.9688,172.2969 L32.9688,162.8125 Q32.9688,162.5469 32.8359,162.4141 Q32.7031,162.2813 32.3594,162.2813 L32.0313,162.2813 Z " fill="#000000"/><text fill="#000000" font-family="sans-serif" font-size="12" lengthAdjust="spacing" textLength="51" x="52.5" y="173.5576">Message</text><line style="stroke:#A80036;stroke-width:1.5;" x1="8" x2="119" y1="184" y2="184"/><text fill="#000000" font-family="sans-serif" font-size="11" lengthAdjust="spacing" textLength="87" x="13" y="200.606">MessageRecordId</text><text fill="#000000" font-family="sans-serif" font-size="11" lengthAdjust="spacing" textLength="87" x="13" y="215.6289">MessageSenderId</text><text fill="#000000" font-family="sans-serif" font-size="11" lengthAdjust="spacing" textLength="101" x="13" y="230.6519">MessageChatRoomId</text><text fill="#000000" font-family="sans-serif" font-size="11" lengthAdjust="spacing" textLength="66" x="13" y="245.6748">MessageTime</text><!--MD5=[8d82b504b58c2fac8ac5760159ea733e]
class ChatRoom--><rect codeLine="17" fill="#FEFECE" filter="url(#fcs7cc78mlxjv)" height="55.0229" id="ChatRoom" style="stroke:#A80036;stroke-width:1.5;" width="92" x="155.5" y="174.5"/><ellipse cx="170.5" cy="190.5" fill="#ADD1B2" rx="11" ry="11" style="stroke:#A80036;stroke-width:1.0;"/><path d="M167.0313,184.7813 L167.0313,184.375 L174.5469,184.375 L175.2656,186.6406 L174.0938,187.0938 Q173.4063,185.7656 172.8125,185.2734 Q172.2188,184.7813 171.4844,184.7813 L169.625,184.7813 Q169.625,184.7813 169.7578,184.9141 Q169.8906,185.0469 169.8906,185.3125 L169.8906,189.4219 L170.9531,189.4219 Q171.6094,189.4219 171.9141,189.0938 Q172.2188,188.7656 172.2188,188.0938 L172.2188,187.7031 L173.6094,187.7031 L173.6094,191.6094 L172.2188,191.6094 L172.2188,191.3438 Q172.2188,190.625 171.9141,190.2266 Q171.6094,189.8281 170.9531,189.8281 L170.0313,189.8281 L170.0313,194.7969 Q170.0313,195.0625 170.1953,195.1953 Q170.3594,195.3281 170.3594,195.3281 L171.3438,195.3281 Q172.3438,195.3281 173.0391,194.7656 Q173.7344,194.2031 174.25,192.6875 L175.4688,193.1406 L174.7344,195.7344 L166.9688,195.7344 L166.9688,195.3281 L167.3594,195.3281 Q167.7031,195.3281 167.8359,195.1953 Q167.9688,195.0625 167.9688,194.7969 L167.9688,185.3125 Q167.9688,185.0469 167.8359,184.9141 Q167.7031,184.7813 167.3594,184.7813 L167.0313,184.7813 Z " fill="#000000"/><text fill="#000000" font-family="sans-serif" font-size="12" lengthAdjust="spacing" textLength="60" x="184.5" y="196.0576">ChatRoom</text><line style="stroke:#A80036;stroke-width:1.5;" x1="156.5" x2="246.5" y1="206.5" y2="206.5"/><text fill="#000000" font-family="sans-serif" font-size="11" lengthAdjust="spacing" textLength="58" x="161.5" y="223.106">ChatRoomID</text><!--MD5=[0573253c1f317a1a7fdeaaa0526a9fb3]
link User to FriendRelationship--><!--MD5=[e8a44440e7d883fedaa906df2c0e3d75]
link User to Message--><!--MD5=[5d405927540481f30b791c70fd6905d4]
link Message to ChatRoom--><!--MD5=[1ad8c76860cb41b1b6ea7f4a8ec41033]
@startUML Database_ER
hide empty members
entity User{
    UserId
    UserName
    UserPassword
}
entity FriendRelationship{
    UserId1
    UserId2
}
entity Message{
    MessageRecordId
    MessageSenderId
    MessageChatRoomId
    MessageTime
}
entity ChatRoom{
    ChatRoomID
}
@enduml

PlantUML version 1.2021.00(Sun Jan 10 18:25:05 CST 2021)
(GPL source distribution)
Java Runtime: Java(TM) SE Runtime Environment
JVM: Java HotSpot(TM) 64-Bit Server VM
Default Encoding: GBK
Language: zh
Country: CN
--></g></svg>